<?xml version="1.0" encoding="UTF-8"?>
<svg width="24px" height="24px" viewBox="0 0 24 24" version="1.1" xmlns="http://www.w3.org/2000/svg">
    <g stroke="none" stroke-width="1" fill="none" fill-rule="evenodd">
        <path d="M12,2 C17.5228,2 22,6.47715 22,12 C22,17.5228 17.5228,22 12,22 C6.47715,22 2,17.5228 2,12 C2,6.47715 6.47715,2 12,2 Z M12,4 C7.58172,4 4,7.58172 4,12 C4,16.4183 7.58172,20 12,20 C16.4183,20 20,16.4183 20,12 C20,7.58172 16.4183,4 12,4 Z M12,6 C12.5523,6 13,6.44772 13,7 L13,11.5858 L16.7071,15.2929 C17.0976,15.6834 17.0976,16.3166 16.7071,16.7071 C16.3166,17.0976 15.6834,17.0976 15.2929,16.7071 L11.2929,12.7071 C11.1054,12.5196 11,12.2652 11,12 L11,7 C11,6.44772 11.4477,6 12,6 Z" fill="#F47B20"></path>
    </g>
</svg>
