<?xml version="1.0" encoding="UTF-8"?>
<svg width="24px" height="24px" viewBox="0 0 24 24" version="1.1" xmlns="http://www.w3.org/2000/svg">
    <g stroke="none" stroke-width="1" fill="none" fill-rule="evenodd">
        <path d="M12,2 C17.5228,2 22,6.47715 22,12 C22,17.5228 17.5228,22 12,22 C6.47715,22 2,17.5228 2,12 C2,6.47715 6.47715,2 12,2 Z M12,4 C7.58172,4 4,7.58172 4,12 C4,16.4183 7.58172,20 12,20 C16.4183,20 20,16.4183 20,12 C20,7.58172 16.4183,4 12,4 Z M12,5 C15.866,5 19,8.13401 19,12 C19,15.866 15.866,19 12,19 C8.13401,19 5,15.866 5,12 C5,8.13401 8.13401,5 12,5 Z M12,7 C9.23858,7 7,9.23858 7,12 C7,14.7614 9.23858,17 12,17 C14.7614,17 17,14.7614 17,12 C17,9.23858 14.7614,7 12,7 Z M12,9 C13.6569,9 15,10.3431 15,12 C15,13.6569 13.6569,15 12,15 C10.3431,15 9,13.6569 9,12 C9,10.3431 10.3431,9 12,9 Z M12,11 C11.4477,11 11,11.4477 11,12 C11,12.5523 11.4477,13 12,13 C12.5523,13 13,12.5523 13,12 C13,11.4477 12.5523,11 12,11 Z" fill="#F47B20"></path>
    </g>
</svg>
