<?xml version="1.0" encoding="UTF-8"?>
<svg width="24px" height="24px" viewBox="0 0 24 24" version="1.1" xmlns="http://www.w3.org/2000/svg">
    <g stroke="none" stroke-width="1" fill="none" fill-rule="evenodd">
        <path d="M12,2 C17.5228,2 22,6.47715 22,12 C22,17.5228 17.5228,22 12,22 C6.47715,22 2,17.5228 2,12 C2,6.47715 6.47715,2 12,2 Z M12,4 C7.58172,4 4,7.58172 4,12 C4,16.0796 7.0602,19.446 11,19.9381 L11,14 L9,14 C8.44772,14 8,13.5523 8,13 C8,12.4477 8.44772,12 9,12 L11,12 L11,10 C11,8.34315 12.3431,7 14,7 L15,7 C15.5523,7 16,7.44772 16,8 C16,8.55228 15.5523,9 15,9 L14,9 C13.4477,9 13,9.44772 13,10 L13,12 L15,12 C15.5523,12 16,12.4477 16,13 C16,13.5523 15.5523,14 15,14 L13,14 L13,19.9381 C16.9398,19.446 20,16.0796 20,12 C20,7.58172 16.4183,4 12,4 Z" fill="#F47B20"></path>
    </g>
</svg>
