<?xml version="1.0" encoding="UTF-8"?>
<svg width="24px" height="24px" viewBox="0 0 24 24" version="1.1" xmlns="http://www.w3.org/2000/svg">
    <g stroke="none" stroke-width="1" fill="none" fill-rule="evenodd">
        <path d="M12,2 C14.7158,2 15.0566,2.01 16.1231,2.06 C17.1896,2.11 17.9142,2.28 18.5501,2.53 C19.2079,2.78 19.7656,3.13 20.3216,3.68 C20.8776,4.23 21.2274,4.79 21.4769,5.45 C21.7264,6.09 21.8931,6.81 21.9422,7.88 C21.9913,8.94 22.0008,9.28 22.0008,12 C22.0008,14.72 21.9913,15.06 21.9422,16.12 C21.8931,17.19 21.7264,17.91 21.4769,18.55 C21.2274,19.21 20.8776,19.77 20.3216,20.32 C19.7656,20.87 19.2079,21.22 18.5501,21.47 C17.9142,21.72 17.1896,21.89 16.1231,21.94 C15.0566,21.99 14.7158,22 12,22 C9.28422,22 8.94343,21.99 7.87695,21.94 C6.81046,21.89 6.08577,21.72 5.44989,21.47 C4.79213,21.22 4.23438,20.87 3.67841,20.32 C3.12243,19.77 2.77264,19.21 2.52311,18.55 C2.27358,17.91 2.10693,17.19 2.05782,16.12 C2.00871,15.06 2,14.72 2,12 C2,9.28 2.00871,8.94 2.05782,7.88 C2.10693,6.81 2.27358,6.09 2.52311,5.45 C2.77264,4.79 3.12243,4.23 3.67841,3.68 C4.23438,3.13 4.79213,2.78 5.44989,2.53 C6.08577,2.28 6.81046,2.11 7.87695,2.06 C8.94343,2.01 9.28422,2 12,2 Z M12,4 C9.32708,4 9.01117,4.01 7.95874,4.06 C6.98383,4.11 6.45363,4.28 6.10124,4.42 C5.63588,4.61 5.30099,4.84 4.94792,5.2 C4.59484,5.56 4.36198,5.89 4.17708,6.36 C4.03646,6.71 3.86458,7.24 3.8151,8.21 C3.76562,9.27 3.75521,9.59 3.75521,12.25 C3.75521,14.91 3.76562,15.23 3.8151,16.29 C3.86458,17.26 4.03646,17.79 4.17708,18.14 C4.36198,18.61 4.59484,18.94 4.94792,19.3 C5.30099,19.66 5.63588,19.89 6.10124,20.08 C6.45363,20.22 6.98383,20.39 7.95874,20.44 C9.01117,20.49 9.32708,20.5 12,20.5 C14.6729,20.5 14.9888,20.49 16.0413,20.44 C17.0162,20.39 17.5464,20.22 17.8988,20.08 C18.3641,19.89 18.699,19.66 19.0521,19.3 C19.4052,18.94 19.638,18.61 19.8229,18.14 C19.9635,17.79 20.1354,17.26 20.1849,16.29 C20.2344,15.23 20.2448,14.91 20.2448,12.25 C20.2448,9.59 20.2344,9.27 20.1849,8.21 C20.1354,7.24 19.9635,6.71 19.8229,6.36 C19.638,5.89 19.4052,5.56 19.0521,5.2 C18.699,4.84 18.3641,4.61 17.8988,4.42 C17.5464,4.28 17.0162,4.11 16.0413,4.06 C14.9888,4.01 14.6729,4 12,4 Z M12,7 C14.7614,7 17,9.23858 17,12 C17,14.7614 14.7614,17 12,17 C9.23858,17 7,14.7614 7,12 C7,9.23858 9.23858,7 12,7 Z M12,9 C10.3431,9 9,10.3431 9,12 C9,13.6569 10.3431,15 12,15 C13.6569,15 15,13.6569 15,12 C15,10.3431 13.6569,9 12,9 Z M17.5,6.75 C17.5,6.06 18.06,5.5 18.75,5.5 C19.44,5.5 20,6.06 20,6.75 C20,7.44 19.44,8 18.75,8 C18.06,8 17.5,7.44 17.5,6.75 Z" fill="#F47B20"></path>
    </g>
</svg>
