<?xml version="1.0" encoding="UTF-8"?>
<svg width="24px" height="24px" viewBox="0 0 24 24" version="1.1" xmlns="http://www.w3.org/2000/svg">
    <g stroke="none" stroke-width="1" fill="none" fill-rule="evenodd">
        <path d="M19,3 C19.5523,3 20,3.44772 20,4 L20,20 C20,20.5523 19.5523,21 19,21 L5,21 C4.44772,21 4,20.5523 4,20 L4,4 C4,3.44772 4.44772,3 5,3 L19,3 Z M18,5 L6,5 L6,19 L18,19 L18,5 Z M8,10 L8,17 L10,17 L10,10 L8,10 Z M9,7 C8.44772,7 8,7.44772 8,8 C8,8.55228 8.44772,9 9,9 C9.55228,9 10,8.55228 10,8 C10,7.44772 9.55228,7 9,7 Z M11,10 L11,17 L13,17 L13,13.5 C13,12.5 14,11.5 15,11.5 C16,11.5 17,12.5 17,13.5 L17,17 L16,17 L16,13.5 C16,13.2239 15.7761,13 15.5,13 C15.2239,13 15,13.2239 15,13.5 L15,17 L16,17 L16,13.5 L17,13.5 L17,17 L19,17 L19,13.5 C19,11.567 17.433,10 15.5,10 C14.2744,10 13.1644,10.599 12.5,11.5 L12.5,10 L11,10 Z" fill="#F47B20"></path>
    </g>
</svg>
