<?xml version="1.0" encoding="UTF-8"?>
<svg width="24px" height="24px" viewBox="0 0 24 24" version="1.1" xmlns="http://www.w3.org/2000/svg">
    <g stroke="none" stroke-width="1" fill="none" fill-rule="evenodd">
        <path d="M12,2 C16.4183,2 20,5.58172 20,10 C20,15.5 12,22 12,22 C12,22 4,15.5 4,10 C4,5.58172 7.58172,2 12,2 Z M12,4 C8.68629,4 6,6.68629 6,10 C6,12.7447 9.10851,16.4893 12,19.2683 C14.8915,16.4893 18,12.7447 18,10 C18,6.68629 15.3137,4 12,4 Z M12,6 C14.2091,6 16,7.79086 16,10 C16,12.2091 14.2091,14 12,14 C9.79086,14 8,12.2091 8,10 C8,7.79086 9.79086,6 12,6 Z M12,8 C10.8954,8 10,8.89543 10,10 C10,11.1046 10.8954,12 12,12 C13.1046,12 14,11.1046 14,10 C14,8.89543 13.1046,8 12,8 Z" fill="#F47B20"></path>
    </g>
</svg>
