<?xml version="1.0" encoding="UTF-8"?>
<svg width="24px" height="24px" viewBox="0 0 24 24" version="1.1" xmlns="http://www.w3.org/2000/svg">
    <g stroke="none" stroke-width="1" fill="none" fill-rule="evenodd">
        <path d="M5,2 L19,2 C19.5523,2 20,2.44772 20,3 L20,17 C20,17.5523 19.5523,18 19,18 L5,18 C4.44772,18 4,17.5523 4,17 L4,3 C4,2.44772 4.44772,2 5,2 Z M6,4 L6,16 L18,16 L18,4 L6,4 Z M8,6 L16,6 L16,14 L8,14 L8,6 Z M10,20 L14,20 L14,22 L10,22 L10,20 Z M7,19 L17,19 L17,21 L7,21 L7,19 Z" fill="#F47B20"></path>
    </g>
</svg>
