<?xml version="1.0" encoding="UTF-8"?>
<svg width="24px" height="24px" viewBox="0 0 24 24" version="1.1" xmlns="http://www.w3.org/2000/svg">
    <g stroke="none" stroke-width="1" fill="none" fill-rule="evenodd">
        <path d="M7,2 L17,2 C18.1046,2 19,2.89543 19,4 L19,20 C19,21.1046 18.1046,22 17,22 L7,22 C5.89543,22 5,21.1046 5,20 L5,4 C5,2.89543 5.89543,2 7,2 Z M7,4 L7,20 L17,20 L17,4 L7,4 Z M12,17 C12.5523,17 13,17.4477 13,18 C13,18.5523 12.5523,19 12,19 C11.4477,19 11,18.5523 11,18 C11,17.4477 11.4477,17 12,17 Z" fill="#F47B20"></path>
    </g>
</svg>
