<?xml version="1.0" encoding="UTF-8"?>
<svg width="24px" height="24px" viewBox="0 0 24 24" version="1.1" xmlns="http://www.w3.org/2000/svg">
    <g stroke="none" stroke-width="1" fill="none" fill-rule="evenodd">
        <path d="M8.2896,20 C15.8368,20 19.9648,13.8438 19.9648,8.5054 C19.9648,8.3326 19.9648,8.1598 19.9528,7.9894 C20.7558,7.4194 21.4494,6.7014 22,5.8766 C21.2514,6.1998 20.4574,6.4118 19.6432,6.5022 C20.5015,6.0278 21.141,5.2486 21.4474,4.2958 C20.6417,4.7718 19.7605,5.0958 18.8414,5.2726 C17.5677,3.9432 15.5419,3.6156 13.9162,4.4958 C12.2905,5.376 11.4308,7.2394 11.8489,9.0358 C8.5459,8.8742 5.4189,7.2424 3.3925,4.5542 C2.3037,6.4254 2.8403,8.8212 4.6612,10.1196 C4.0097,10.1014 3.3722,9.9368 2.8,9.6382 C2.8,9.6542 2.8,9.6726 2.8,9.691 C2.8006,11.6506 4.1782,13.3298 6.092,13.7358 C5.4879,13.891 4.8578,13.9138 4.2432,13.8022 C4.7783,15.4686 6.3182,16.6118 8.0728,16.6438 C6.6198,17.7822 4.8304,18.4064 2.9888,18.4054 C2.6591,18.4048 2.3297,18.3866 2,18.3486 C3.87653,19.5478 6.05993,20.1936 8.2896,20.0006" fill="#F47B20"></path>
    </g>
</svg>
