<?xml version="1.0" encoding="UTF-8"?>
<svg width="150px" height="40px" viewBox="0 0 150 40" version="1.1" xmlns="http://www.w3.org/2000/svg">
    <g stroke="none" stroke-width="1" fill="none" fill-rule="evenodd">
        <g transform="translate(0, 5)" fill="#F47B20" fill-rule="nonzero">
            <path d="M10,0 L20,20 L0,20 L10,0 Z M10,5 L3.5,17 L16.5,17 L10,5 Z"></path>
        </g>
        <g transform="translate(25, 5)" fill="#F47B20" fill-rule="nonzero">
            <path d="M0,0 L5,0 L10,20 L5,20 L4,16 L1,16 L0,20 L-5,20 L0,0 Z M2.5,12 L3.5,4 L2.5,4 L1.5,12 L2.5,12 Z"></path>
            <path d="M15,0 L25,0 L25,4 L20,4 L20,8 L24,8 L24,12 L20,12 L20,16 L25,16 L25,20 L15,20 L15,0 Z" transform="translate(5, 0)"></path>
            <path d="M30,0 L35,0 L40,20 L35,20 L34,16 L31,16 L30,20 L25,20 L30,0 Z M32.5,12 L33.5,4 L32.5,4 L31.5,12 L32.5,12 Z" transform="translate(10, 0)"></path>
            <path d="M45,0 L50,0 L55,20 L50,20 L49,16 L46,16 L45,20 L40,20 L45,0 Z M47.5,12 L48.5,4 L47.5,4 L46.5,12 L47.5,12 Z" transform="translate(15, 0)"></path>
            <path d="M60,0 L65,0 L65,16 L70,16 L70,20 L60,20 L60,0 Z" transform="translate(20, 0)"></path>
        </g>
        <g transform="translate(25, 25)" fill="#2E3192" fill-rule="nonzero">
            <path d="M0,0 L5,0 L5,15 L0,15 L0,0 Z"></path>
            <path d="M10,0 L15,0 L15,6 L17,6 L17,0 L22,0 L22,15 L17,15 L17,10 L15,10 L15,15 L10,15 L10,0 Z" transform="translate(7, 0)"></path>
            <path d="M25,0 L35,0 L35,3 L30,3 L30,6 L34,6 L34,9 L30,9 L30,12 L35,12 L35,15 L25,15 L25,0 Z" transform="translate(14, 0)"></path>
            <path d="M40,0 L45,0 L45,12 L50,12 L50,15 L40,15 L40,0 Z" transform="translate(21, 0)"></path>
            <path d="M55,0 L60,0 L60,15 L55,15 L55,0 Z" transform="translate(28, 0)"></path>
            <path d="M65,0 L70,0 L75,15 L70,15 L69,12 L66,12 L65,15 L60,15 L65,0 Z M67.5,9 L68.5,3 L67.5,3 L66.5,9 L67.5,9 Z" transform="translate(35, 0)"></path>
            <path d="M80,0 L85,0 L85,12 L90,12 L90,15 L80,15 L80,0 Z" transform="translate(42, 0)"></path>
        </g>
    </g>
</svg>
